{
	"asset":{
		"generator":"Khronos glTF Blender I/O v4.4.56",
		"version":"2.0"
	},
	"scene":0,
	"scenes":[
		{
			"name":"Scene",
			"nodes":[
				0,
				1,
				2,
				3
			]
		}
	],
	"nodes":[
		{
			"mesh":0,
			"name":"Blue_Ship",
			"rotation":[
				0,
				-0.9238795638084412,
				0,
				0.3826833963394165
			],
			"scale":[
				0.05000000074505806,
				0.05000000074505806,
				0.05000000074505806
			],
			"translation":[
				7.5,
				0.20000000298023224,
				7.5
			]
		},
		{
			"mesh":1,
			"name":"GameBoard_Base",
			"translation":[
				0,
				-0.05000000074505806,
				0
			]
		},
		{
			"mesh":2,
			"name":"Red_Ship",
			"rotation":[
				0,
				0.3826834559440613,
				0,
				0.9238795638084412
			],
			"scale":[
				0.05000000074505806,
				0.05000000074505806,
				0.05000000074505806
			],
			"translation":[
				-7,
				0.20000000298023224,
				-7.099999904632568
			]
		},
		{
			"mesh":3,
			"name":"Red_Ship.001",
			"rotation":[
				0,
				0.3826834559440613,
				0,
				0.9238795638084412
			],
			"scale":[
				0.05000000074505806,
				0.05000000074505806,
				0.05000000074505806
			],
			"translation":[
				-7,
				0.20000000298023224,
				-7.099999904632568
			]
		}
	],
	"materials":[
		{
			"doubleSided":true,
			"name":"Ship_Material",
			"pbrMetallicRoughness":{
				"baseColorFactor":[
					0.05479854345321655,
					0.3165004849433899,
					0.7010529637336731,
					1
				],
				"metallicFactor":0.800000011920929,
				"roughnessFactor":0.20000000298023224
			}
		},
		{
			"doubleSided":true,
			"name":"Material.002"
		},
		{
			"doubleSided":true,
			"name":"Ship_Material.001",
			"pbrMetallicRoughness":{
				"baseColorFactor":[
					0.7007043957710266,
					0.022539682686328888,
					0.048946402966976166,
					1
				],
				"metallicFactor":0.800000011920929,
				"roughnessFactor":0.20000000298023224
			}
		},
		{
			"doubleSided":true,
			"name":"Ship_Material.002",
			"pbrMetallicRoughness":{
				"baseColorFactor":[
					0.7007043957710266,
					0.022539682686328888,
					0.048946402966976166,
					1
				],
				"metallicFactor":0.800000011920929,
				"roughnessFactor":0.20000000298023224
			}
		}
	],
	"meshes":[
		{
			"name":"final ship model",
			"primitives":[
				{
					"attributes":{
						"POSITION":0,
						"NORMAL":1
					},
					"indices":2,
					"material":0
				}
			]
		},
		{
			"name":"Plane",
			"primitives":[
				{
					"attributes":{
						"POSITION":3,
						"NORMAL":4,
						"TEXCOORD_0":5
					},
					"indices":6,
					"material":1
				}
			]
		},
		{
			"name":"final ship model.001",
			"primitives":[
				{
					"attributes":{
						"POSITION":7,
						"NORMAL":8
					},
					"indices":2,
					"material":2
				}
			]
		},
		{
			"name":"final ship model.002",
			"primitives":[
				{
					"attributes":{
						"POSITION":9,
						"NORMAL":10
					},
					"indices":2,
					"material":3
				}
			]
		}
	],
	"accessors":[
		{
			"bufferView":0,
			"componentType":5126,
			"count":384551,
			"max":[
				14.992799758911133,
				13.565186500549316,
				26.26010513305664
			],
			"min":[
				-15.741201400756836,
				-0.5441151857376099,
				-3.9150989055633545
			],
			"type":"VEC3"
		},
		{
			"bufferView":1,
			"componentType":5126,
			"count":384551,
			"type":"VEC3"
		},
		{
			"bufferView":2,
			"componentType":5125,
			"count":430422,
			"type":"SCALAR"
		},
		{
			"bufferView":3,
			"componentType":5126,
			"count":25,
			"max":[
				10,
				0,
				10
			],
			"min":[
				-10,
				0,
				-10
			],
			"type":"VEC3"
		},
		{
			"bufferView":4,
			"componentType":5126,
			"count":25,
			"type":"VEC3"
		},
		{
			"bufferView":5,
			"componentType":5126,
			"count":25,
			"type":"VEC2"
		},
		{
			"bufferView":6,
			"componentType":5123,
			"count":96,
			"type":"SCALAR"
		},
		{
			"bufferView":7,
			"componentType":5126,
			"count":384551,
			"max":[
				14.992799758911133,
				13.565186500549316,
				26.26010513305664
			],
			"min":[
				-15.741201400756836,
				-0.5441151857376099,
				-3.9150989055633545
			],
			"type":"VEC3"
		},
		{
			"bufferView":8,
			"componentType":5126,
			"count":384551,
			"type":"VEC3"
		},
		{
			"bufferView":9,
			"componentType":5126,
			"count":384551,
			"max":[
				14.992799758911133,
				13.565186500549316,
				26.26010513305664
			],
			"min":[
				-15.741201400756836,
				-0.5441151857376099,
				-3.9150989055633545
			],
			"type":"VEC3"
		},
		{
			"bufferView":10,
			"componentType":5126,
			"count":384551,
			"type":"VEC3"
		}
	],
	"bufferViews":[
		{
			"buffer":0,
			"byteLength":4614612,
			"byteOffset":0,
			"target":34962
		},
		{
			"buffer":0,
			"byteLength":4614612,
			"byteOffset":4614612,
			"target":34962
		},
		{
			"buffer":0,
			"byteLength":1721688,
			"byteOffset":9229224,
			"target":34963
		},
		{
			"buffer":0,
			"byteLength":300,
			"byteOffset":10950912,
			"target":34962
		},
		{
			"buffer":0,
			"byteLength":300,
			"byteOffset":10951212,
			"target":34962
		},
		{
			"buffer":0,
			"byteLength":200,
			"byteOffset":10951512,
			"target":34962
		},
		{
			"buffer":0,
			"byteLength":192,
			"byteOffset":10951712,
			"target":34963
		},
		{
			"buffer":0,
			"byteLength":4614612,
			"byteOffset":10951904,
			"target":34962
		},
		{
			"buffer":0,
			"byteLength":4614612,
			"byteOffset":15566516,
			"target":34962
		},
		{
			"buffer":0,
			"byteLength":4614612,
			"byteOffset":20181128,
			"target":34962
		},
		{
			"buffer":0,
			"byteLength":4614612,
			"byteOffset":24795740,
			"target":34962
		}
	],
	"buffers":[
		{
			"byteLength":29410352,
			"uri":"scene_export.bin"
		}
	]
}
